<svg viewBox="54.1 43.105 758.744 170.223" xmlns="http://www.w3.org/2000/svg"><g transform="translate(-9.972 3.986)"><circle class="cls-1" cx="146.829" cy="124.017" r="82.757" style="fill:#fbdb58"/><path class="cls-2" d="M229.593 123.94a82.647 82.647 0 0 0-33.442-66.38c-36.713-27.237-88.54-19.565-115.778 17.135a82.36 82.36 0 0 0-16.142 43.969 24.904 24.904 0 0 1 4.603 2.223c7.708 4.766 13.579 13.546 22.602 14.368 6.191.566 12.056-2.987 16.52-7.313 4.465-4.326 8.041-9.541 12.738-13.617 15.021-13.043 37.731-11.603 50.984 3.232 4.581 5.138 8.577 12.105 15.414 12.933 9.295 1.112 16.559-10.226 25.864-9.36 3.007.281 5.729 1.83 8.642 2.586a17.63 17.63 0 0 0 7.995.224Z" style="fill:#efb732"/><path class="cls-3" d="m178.758 114.56-4.639-.772a24.38 24.38 0 0 1-13.695-7.284 25.943 25.943 0 0 0-10.85-6.86v-1.293h-8.082a25.973 25.973 0 0 0-18.91 8.153 24.377 24.377 0 0 1-13.694 7.284l-4.64.772a8.007 8.007 0 0 0-6.689 7.896v50.11a8.047 8.047 0 0 0 8.047 8.047H177.4a8.047 8.047 0 0 0 8.047-8.047v-50.11a8.006 8.006 0 0 0-6.689-7.896Z" style="fill:#8c4735"/><path class="cls-4" d="m186.831 114.56-4.64-.772a24.377 24.377 0 0 1-13.701-7.284c-10.281-10.855-27.567-10.855-37.848 0a24.38 24.38 0 0 1-13.695 7.284l-4.639.772a8.006 8.006 0 0 0-6.689 7.896v50.11a8.047 8.047 0 0 0 8.047 8.047h71.807a8.047 8.047 0 0 0 8.047-8.047v-50.11a8.007 8.007 0 0 0-6.689-7.896Z" style="fill:#a05740"/><path class="cls-5" d="M177.503 171.241h-55.862a7.207 7.207 0 0 1-7.196-7.197V127.68a7.14 7.14 0 0 1 5.987-7.067l.129-.016 6.192-.53a15.408 15.408 0 0 0 8.529-4.559c7.764-8.199 20.82-8.199 28.585 0a15.377 15.377 0 0 0 8.526 4.559l6.319.546a7.14 7.14 0 0 1 5.988 7.067v36.364a7.203 7.203 0 0 1-7.197 7.197Z" style="fill:#7a2b13"/><path class="cls-6" d="M120.908 123.81a3.922 3.922 0 0 0-3.233 3.88v36.354a3.967 3.967 0 0 0 3.963 3.964h55.865a3.967 3.967 0 0 0 3.964-3.964V127.68a3.92 3.92 0 0 0-3.233-3.879l-6.313-.544a18.628 18.628 0 0 1-10.404-5.534c-6.492-6.853-17.404-6.853-23.895 0a18.632 18.632 0 0 1-10.401 5.534h-.129l-6.184.553Z" style="fill:#b76049"/><ellipse class="cls-7" cx="174.626" cy="133.978" rx="4.102" ry="7.306" style="fill:#cc715e"/><ellipse class="cls-7" cx="174.626" cy="148.258" rx="2.589" ry="4.611" style="fill:#cc715e"/><path class="cls-8" d="M130.228 161.778a1.234 1.234 0 0 1-.323-.912V149.67c-.017-.319.1-.63.323-.859a1.19 1.19 0 0 1 .873-.307h4.707c1.442 0 2.565.359 3.369 1.079 1.616 1.313 1.616 4.762 0 6.078-.806.729-1.929 1.092-3.369 1.089h-3.427v4.123c.021.335-.096.664-.323.912a1.386 1.386 0 0 1-1.83-.007Zm5.253-6.922c1.699 0 2.548-.739 2.548-2.218 0-1.478-.849-2.219-2.548-2.221h-3.119v4.439h3.119ZM144.854 160.734c-.957-.958-1.436-2.358-1.436-4.203v-6.899a1.23 1.23 0 0 1 .324-.889 1.325 1.325 0 0 1 1.762 0c.222.241.339.561.323.889v7.038c0 1.162.275 2.038.824 2.632.55.592 1.354.888 2.413.888 2.191 0 3.232-1.338 3.213-3.52v-7.038a1.206 1.206 0 1 1 2.412 0v6.909c0 1.825-.479 3.22-1.436 4.183-1.701 1.93-6.695 1.92-8.399.01ZM168.61 156.218c.441.61.669 1.35.646 2.104-.016 2.586-2.098 3.685-4.632 3.676h-4.943a1.201 1.201 0 0 1-.871-.324 1.15 1.15 0 0 1-.323-.863V149.67c-.017-.319.1-.63.323-.859.237-.216.551-.326.871-.307h4.748c1.404 0 2.504.309 3.301.927 1.31.918 1.588 3.155.647 4.449a3.237 3.237 0 0 1-1.558 1.151 3.26 3.26 0 0 1 1.791 1.187Zm-7.704-2.031h3.119c1.699 0 2.548-.631 2.548-1.895a1.617 1.617 0 0 0-.647-1.416c-.431-.308-1.069-.461-1.913-.459h-3.121l.014 3.77Zm5.398 5.419c.825-.569.812-2.435 0-3.007-.413-.323-1.063-.498-1.939-.498h-3.459v3.983h3.446c.905 0 1.552-.162 1.952-.478Z" style="fill:#fff"/><path class="cls-9" d="M165.545 126.978v8.494c0 .915-.743 1.658-1.658 1.658h-5.174v-2.192h3.942a.709.709 0 0 0 .708-.712v-6.006a.713.713 0 0 0-.708-.712h-3.954v-2.198h5.173a1.659 1.659 0 0 1 1.671 1.668Z" style="fill:#4fcae8"/><path class="cls-10" d="M165.545 126.978v7.575a1.66 1.66 0 0 1-1.658 1.659h-3.233a.501.501 0 0 1-.501-.502v-.274a.5.5 0 0 1 .501-.498h2.709a.711.711 0 0 0 .708-.712v-6.921a.711.711 0 0 0-.708-.711h-2.709a.5.5 0 0 1-.501-.498v-.275a.5.5 0 0 1 .501-.501h3.233c.915 0 1.658.743 1.658 1.658Z" style="fill:#83d5ef"/><ellipse class="cls-11" cx="164.915" cy="128.518" rx=".627" ry="1.38" style="fill:#cde6f6"/><ellipse class="cls-11" cx="164.915" cy="131.285" rx=".437" ry=".957" style="fill:#cde6f6"/><path class="cls-9" d="M141.634 120.487h15.541c.837 0 1.516.679 1.516 1.516v20.29a1.52 1.52 0 0 1-1.52 1.519h-15.55a1.516 1.516 0 0 1-1.516-1.516v-20.29c0-.843.686-1.525 1.529-1.519Z" style="fill:#4fcae8"/><path class="cls-10" d="M143.309 120.487h13.866c.837 0 1.516.679 1.516 1.516v20.29c0 .837-.679 1.516-1.516 1.516h-13.866a1.516 1.516 0 0 1-1.516-1.516v-20.287c0-.838.678-1.518 1.516-1.519Z" style="fill:#83d5ef"/><rect class="cls-11" x="157.026" y="122.378" width="1.675" height="6.818" rx="2.59" style="fill:#cde6f6"/><rect class="cls-11" x="157.026" y="130.625" width="1.675" height="4.27" rx="2.59" style="fill:#cde6f6"/><path class="cls-12" d="M141.793 120.487h15.233v19.252a1.824 1.824 0 0 1-1.823 1.824h-11.59a1.824 1.824 0 0 1-1.824-1.824v-19.252h.004Z" style="fill:#f39e22"/><ellipse class="cls-13" cx="154.294" cy="126.494" rx="1.791" ry="3.162" style="fill:#f9c744"/><ellipse class="cls-13" cx="154.294" cy="132.597" rx="1.118" ry="1.972" style="fill:#f9c744"/><path class="cls-8" d="M157.026 120.487h-15.233a2.088 2.088 0 0 1 2.822-1.963c.123-1.608 1.941-2.48 3.271-1.569.511.349.842.908.903 1.524a3.252 3.252 0 0 1 3.63-.239 1.618 1.618 0 1 1 3.233.152c.001.163-.023.325-.071.481a1.617 1.617 0 0 1 1.445 1.614Z" style="fill:#fff"/><circle class="cls-8" cx="148.895" cy="127.143" r="1.074" style="fill:#fff"/><circle class="cls-8" cx="150.903" cy="130.875" r="1.387" style="fill:#fff"/><circle class="cls-8" cx="153.68" cy="120.991" r="1.387" style="fill:#fff"/><circle class="cls-8" cx="148.375" cy="133.665" r=".902" style="fill:#fff"/><circle class="cls-8" cx="145.695" cy="138.475" r=".902" style="fill:#fff"/><circle class="cls-8" cx="151.591" cy="137.13" r="1.164" style="fill:#fff"/><circle class="cls-8" cx="151.388" cy="124.234" r=".902" style="fill:#fff"/><path class="cls-8" d="M144.612 135.161a1.084 1.084 0 0 1-1.084-1.083V120.5h2.167v13.578c0 .598-.485 1.083-1.083 1.083ZM146.729 120.487h2.166v3.256a1.082 1.082 0 0 1-1.096 1.082 1.082 1.082 0 0 1-1.083-1.082v-3.256h.013Z" style="fill:#fff"/><path class="cls-14" d="M193.52 69.38v7.342a5.321 5.321 0 0 1-5.309 5.312H97.553V64.052h90.658a5.323 5.323 0 0 1 5.309 5.328Z" style="fill:#6b250c"/><path class="cls-5" d="M193.52 69.38v2.813a5.323 5.323 0 0 1-5.309 5.322H97.553V64.052h90.658a5.323 5.323 0 0 1 5.309 5.328Z" style="fill:#7a2b13"/><ellipse class="cls-15" cx="149.707" cy="68.802" rx="8.361" ry="3.12" style="fill:#992b16"/><ellipse class="cls-15" cx="166.211" cy="68.802" rx="5.968" ry="2.227" style="fill:#992b16"/><circle class="cls-5" cx="128.078" cy="114.796" r="3.21" style="fill:#7a2b13"/><circle class="cls-5" cx="171.067" cy="114.796" r="3.21" style="fill:#7a2b13"/><path class="cls-16" d="M120.888 82.034h3.233v22.954c-.53.475-1.048.97-1.545 1.503a23.497 23.497 0 0 1-1.688 1.616V82.034Z" style="fill:#fbd9a3"/><path class="cls-8" d="M135.268 68.009v41.214a7.199 7.199 0 0 1-7.19 7.19 1.616 1.616 0 1 1 0-3.233 3.959 3.959 0 0 0 3.957-3.957V68.009a3.96 3.96 0 0 0-3.957-3.957h-5.997c3.053-4.616 9.959-4.196 12.431.756.496.995.755 2.09.756 3.201Z" style="fill:#fff"/><path class="cls-16" d="M167.11 82.034v23.113a25.514 25.514 0 0 0-3.233-2.516V82.034h3.233Z" style="fill:#fbd9a3"/><path class="cls-8" d="M178.257 68.009v41.214a7.2 7.2 0 0 1-7.18 7.19 1.617 1.617 0 1 1 0-3.233 3.96 3.96 0 0 0 3.957-3.957V68.009a3.961 3.961 0 0 0-3.957-3.957h-6.008c3.054-4.616 9.96-4.196 12.432.756.496.995.754 2.09.756 3.201Z" style="fill:#fff"/></g><path d="M273.835 181.569q-2.025-.81-4.725-2.228-2.7-1.417-5.13-3.712-2.43-2.295-3.78-5.535-1.35-3.915-1.823-7.695-.472-3.78-.337-8.775 0-7.02 1.012-12.218 1.013-5.197 3.173-10.597.27-.405 1.012-2.363.743-1.957 1.755-4.252 1.013-2.295 1.553-3.51 1.08-2.295 3.307-6.143 2.228-3.847 4.793-7.492 3.915-5.805 6.615-9.518 2.7-3.712 5.197-6.277 2.498-2.565 5.535-4.995 3.038-2.43 7.628-5.535 2.97-2.16 7.627-2.7 4.658-.54 9.113 1.417 4.455 1.958 6.615 7.358 1.485 2.835 1.35 7.087-.135 4.253-1.62 9.045-1.485 4.793-3.78 8.978t-5.13 6.75q-1.755 1.62-4.658.54-2.902-1.08-4.792-2.835-1.215-2.295-1.283-2.7-.067-.405.473-.54.81-.945 2.16-3.24 1.35-2.295 2.7-4.928 1.35-2.632 1.89-4.252 1.08-5.67 1.485-7.493.405-1.822-.81-3.037-.54-.54-1.553-.405-1.012.135-3.307 1.35-3.105 1.35-7.358 5.467-4.252 4.118-8.437 9.788-5.4 7.155-9.045 12.69-3.645 5.535-5.535 11.34-.27.54-.878 2.025l-.607 1.485q.135.54-.405 2.632-.54 2.093-1.215 3.578-1.485 6.21-1.755 11.947-.27 5.738.742 9.99 1.013 4.253 3.038 6.278 1.755 1.215 4.455.81t6.21-1.89q3.51-1.485 7.56-3.24 3.24-1.35 5.94-2.97t4.05-2.835q1.08-.81 2.767-1.688 1.688-.877 2.903-.877 1.89-.675 2.835 1.08.945 1.755.945 4.455 0 1.89-2.7 4.59t-5.94 4.59q-1.08 1.08-2.903 1.957-1.822.878-3.712 1.553-2.835 2.16-7.02 4.185-4.185 2.025-8.438 3.105-4.252 1.08-7.762.405Zm54.4-7.425q-2.566.675-4.59-1.418-2.026-2.092-2.836-6.142-.81-4.05.27-9.045.675-1.62 1.08-3.173.405-1.552.405-2.497.27-1.35 1.08-3.983.81-2.632 1.755-5.467.945-2.835 1.823-5.063.877-2.227 1.147-2.767.54 0 .945-.945.405-.945.405-1.89 0-1.08.473-2.43.472-1.35 1.012-1.89 0-.675.338-1.553.337-.877.337-1.417t.338-1.08q.337-.54.337-1.08.945-1.755 2.498-5.603 1.552-3.847 3.375-8.572 1.822-4.725 3.442-9.315t2.633-7.763q1.012-3.172 1.012-3.847 0-1.08.81-2.025.81-.945 1.89-.945.405-.405 1.89-.608 1.485-.202 2.025-.202l.54.54 1.62 1.62q1.08.945 2.093 2.16 1.012 1.215 1.012 2.835 0 1.755-.472 3.375-.473 1.62-1.688 4.387-1.215 2.768-3.78 8.168-1.08 2.7-2.295 5.062-1.215 2.363-1.215 2.903t-.472 1.62q-.473 1.08-1.013 2.7-.54 1.08-1.485 3.172-.945 2.093-1.957 4.455-1.013 2.363-1.688 4.05-.675 1.688-.675 1.958 0 .54-.067 1.08-.068.54-.608 1.08-.54 0-.607.742l-.068.743q0 1.35-2.16 7.155-2.16 7.425-3.982 13.635-1.823 6.21-1.823 9.99 0 3.24-1.012 4.995-1.013 1.755-2.093 2.295Zm50.221-1.755q-1.35-1.35-2.16-3.713-.81-2.362-1.62-5.467-.27-1.08-.203-2.43.068-1.35-.067-2.16-.405.945-1.283 2.43-.877 1.485-1.687 2.16-.54.54-2.43 2.092-1.89 1.553-3.78 2.498-4.455 2.835-7.898 2.632-3.442-.202-6.007-3.442-2.16-1.755-3.51-4.455-1.35-2.7-.54-6.48.27-4.725 1.35-9.248 1.08-4.522 4.455-12.082 2.835-5.535 4.32-8.64 1.485-3.105 1.89-3.645 2.025-.675 4.995.067 2.97.743 3.24 2.633.81 1.35 0 5.062-.81 3.713-3.24 8.438-1.89 4.59-3.578 8.91-1.687 4.32-2.025 7.29-.337 2.97 1.553 3.645 1.215.675 3.577-.135 2.363-.81 5.603-4.86 3.24-4.05 6.885-12.825 1.08-2.7 1.62-4.793.54-2.092.675-4.657-.27-1.62.877-3.375 1.148-1.755 2.768-2.7.54-.675 1.485-1.283.945-.607 1.215.068l2.16-.135q.54-.135 1.215 1.08t1.35 1.755q1.485 1.215 1.35 5.265t-3.24 11.34q-2.565 5.535-3.443 8.37-.877 2.835-1.012 5.535 0 2.43.405 4.117.405 1.688 2.43 3.443 1.485.945 1.687 3.172.203 2.228.068 3.848-.27 1.215-2.093 1.687-1.822.473-3.915.203-2.092-.27-3.442-1.215Zm35.506-.54q-2.7-.27-4.252-1.418-1.553-1.147-2.363-2.902-1.08-1.215-1.282-1.89-.203-.675-.068-1.215.675 0 1.215-.068.54-.067.675-.472 0-.405.473-.54.472-.135 1.012 0 2.565.135 6.278-1.755 3.712-1.89 8.167-5.333 4.455-3.442 8.91-7.492 3.51-4.59 4.928-6.75 1.417-2.16 1.485-3.308.067-1.147-.608-2.362-.54-1.08-2.565-1.08t-6.21 2.7q-5.805 3.645-9.315 6.75t-6.48 7.02q-1.08 1.35-2.362 2.902-1.283 1.553-2.16 2.633l-.878 1.08q0 .54-1.552 1.35-1.553.81-2.633.81-.54-.27-1.417-1.013-.878-.742-1.148-1.957-1.215-.945-2.025-1.688-.81-.742-.81-2.497 0-1.08.338-2.7.337-1.62 1.012-4.185.81-3.51 1.755-7.358.945-3.847 1.823-6.615.877-2.767 1.282-3.037l.54-1.215q.54-1.215.54-2.835.27-1.62.878-2.835.607-1.215.607-1.755.54-.405 1.62-3.24t2.7-7.425q0-.405.945-2.633.945-2.227 2.295-5.265 1.35-3.037 2.768-6.345 1.417-3.307 2.362-5.872 1.62-2.295 2.768-4.658 1.147-2.362 2.092-2.767.675-.135 2.363.54 1.687.675 3.442 1.755 1.755 1.08 2.43 2.16.405.675.473 1.35.067.675-.608 2.227-.675 1.553-2.295 4.995-1.62 3.443-4.59 9.653-3.78 8.1-5.872 13.5-2.093 5.4-3.375 9.315-1.283 3.915-2.633 7.425l-.675 2.97 3.51-3.915q1.35-1.35 2.835-2.565 1.485-1.215 3.24-2.43 1.08-.81 2.903-1.688 1.822-.877 3.577-1.552t2.565-.81q.405-.135 2.768-.608 2.362-.472 4.657-.472 2.97 0 5.198 2.092 2.227 2.093 3.982 5.063 1.485 2.835 1.08 7.222-.405 4.388-2.295 7.493-.675.54-1.35 1.417-.675.878-.675 1.418-.135.945-2.43 3.847-2.295 2.903-4.59 5.468-2.43 2.565-5.94 5.062-3.51 2.498-6.952 4.455-3.443 1.958-5.873 2.768-1.08.135-3.105.472-2.025.338-3.105.608Zm85.86-1.35q-3.376 1.62-6.548 1.147-3.173-.472-5.265-3.375-2.093-2.902-2.093-8.572 0-1.485.203-3.578.202-2.092.742-4.455.54-2.362 1.35-4.792.405-1.215 1.148-2.43.742-1.215.202-1.215t-1.282.675q-.743.675-1.148 1.08-3.375 2.97-6.142 6.142-2.768 3.173-4.86 6.21-2.093 3.038-3.24 5.603-1.148 2.565-1.148 4.32 0 2.025-2.025 2.835t-3.51-.135q-2.565-1.485-4.657-4.59-2.093-3.105-1.688-8.1.405-6.345 1.08-11.34t2.228-10.868q1.552-5.872 4.117-14.377 1.755-4.725 3.24-8.978 1.485-4.252 2.633-7.222 1.147-2.97 1.417-3.645.675-.675 1.755-3.308 1.08-2.632 1.958-5.332.877-2.7.877-3.24 0-1.08.473-1.89.472-.81.877-1.485.81-1.89 1.418-2.633.607-.742 1.147-.742.675 0 2.228.675 1.552.675 2.97 1.687 1.417 1.013 1.687 2.093.945 1.89 1.08 3.847.135 1.958-.945 4.793t-3.78 7.83q-2.16 4.185-3.915 8.64-1.755 4.455-3.375 9.315-.675 2.025-1.755 5.332-1.08 3.308-2.092 6.75-1.013 3.443-1.688 6.143-.675 2.7-.675 3.51 0 .945 1.08.877 1.08-.067 2.16-1.552.54-1.08 1.755-2.093 1.215-1.012 2.16-2.092 1.08-1.35 2.633-3.173 1.552-1.822 3.375-3.51 1.822-1.687 3.375-2.767 1.552-1.08 2.632-1.08 2.565 0 4.32 1.485 1.755 1.485 2.97 4.59.405.405.81 1.012.405.608.54.878.675.54.675 4.252 0 3.713-2.16 10.193-1.215 4.995-1.417 7.425-.203 2.43.877 2.43l1.418-.81q1.417-.81 3.037-1.755 3.915-2.565 5.67-1.62 1.755.945 1.755 2.43 0 1.215-.877 2.835-.878 1.62-.878 2.16v.675q0 .27-1.755 1.89-1.755 1.62-3.847 3.172-2.093 1.553-3.308 1.823Zm28.346 1.215q-1.755 0-2.768-.675-1.012-.675-2.497-1.89-2.565-2.7-4.118-5.805-1.552-3.105-1.147-5.4.405-1.08.337-2.093l-.067-1.012q-.675-.675-.405-.878.27-.202.54-.742.81 0 .54-1.485-.27-1.08.877-4.658 1.148-3.577 3.173-6.817.81-1.35 2.43-3.578 1.62-2.227 3.577-4.455 1.958-2.227 3.578-3.577 3.375-2.835 6.277-4.59 2.903-1.755 5.873-2.43 2.97-.675 6.142-.675 3.173 0 5.198 2.16 3.105 1.35 4.387 3.645 1.283 2.295 1.688 5.94.405 4.05-.81 9.922-1.215 5.873-6.615 13.568-3.375 4.86-6.615 7.56-3.24 2.7-7.155 4.995-2.835 1.89-6.075 2.295t-6.345.675Zm13.77-16.47q2.97-2.565 4.252-5.67 1.283-3.105 2.768-7.29.54-.81.742-2.7.203-1.89.068-3.713-.135-1.822-.945-2.092-1.215-.945-2.43-.473-1.215.473-3.105 1.823-4.05 3.375-7.493 7.762-3.442 4.388-4.792 10.733-.405 3.375.742 5.062 1.148 1.688 3.78.945 2.633-.742 6.413-4.387Zm58.725 18.225q-.945.54-2.498-.405-1.552-.945-3.037-2.835-.945-1.62-1.418-3.308-.472-1.687-.472-5.062.135-2.7.067-3.713-.067-1.012-1.215-.135-1.147.878-4.522 4.118-3.375 3.375-6.413 5.737-3.037 2.363-4.927 2.228-.945 0-2.565-1.215t-3.105-3.038q-1.485-1.822-2.16-3.442-.81-3.24-.068-8.37.743-5.13 2.498-10.733 1.755-5.602 3.982-10.53 2.228-4.927 4.455-7.965 2.228-3.037 3.848-2.902 2.295.27 3.982 2.227 1.688 1.958 2.633 4.253.54.945.472 1.62-.067.675-1.147 1.62-1.215 1.62-2.903 4.657-1.687 3.038-3.375 6.548-1.687 3.51-2.97 6.682-1.282 3.173-1.822 5.198-.54 2.025 0 2.025 1.89 0 3.51-1.013 1.62-1.012 4.05-3.307 2.835-2.835 4.995-5.738 2.16-2.902 4.455-6.682 1.755-2.7 3.712-5.94 1.958-3.24 2.498-4.59l2.835-5.265q.945-1.755 2.295-2.16h3.105q.81.135 1.89 1.215 1.08.54 2.227 1.485 1.148.945 1.148 1.62-.54 1.35-1.688 3.982-1.147 2.633-1.687 3.848-2.565 5.805-4.928 11.407-2.362 5.603-3.442 11.408-.27 1.89-.068 4.387.203 2.498.743 3.578.405.81 1.012 1.822.608 1.013 1.418 1.688 1.215.81-.068 2.025-1.282 1.215-3.105 2.092-1.822.878-2.227.878Zm24.301 0q-4.59-1.89-6.683-3.983-2.092-2.092-1.687-3.712.27-.81.945-1.485.675-.675 3.037-.608 2.363.068 7.358 1.283 1.485 0 2.97-.135t2.767-.405q1.283-.27 2.093-.675.675-.27.405-.743-.27-.472-.945-1.012-.54-.675-1.215-.878-.675-.202-1.215-.202-.27-.675-1.148-1.35-.877-.675-2.092-1.485-2.97-2.43-5.4-4.32-2.43-1.89-1.89-2.835v-.675q-.945 0-1.755-2.633-.81-2.632-.81-4.792 0-2.7 1.147-5.4 1.148-2.7 2.97-5.13 1.823-2.43 3.713-4.32 2.565-2.43 5.467-4.793 2.903-2.362 6.345-4.252 3.443-1.89 7.628-2.97 1.89-.405 4.32-.405 2.43 0 3.51.675 1.08-.675 2.7.337 1.62 1.013 3.24 2.768t2.43 3.51q0 1.62-.068 3.982-.067 2.363-.337 4.118-.27 1.755-1.215 1.755l-.338.067q-.337.068-.337.743 0 1.35-2.025 3.105-2.565 1.755-4.86 2.835-2.295 1.08-3.51.135-.81-.54-1.485-1.08t-1.215-1.35l-.338-.608q-.337-.607-.337-1.147t.405-1.013l.405-.472q1.89-1.755 2.902-3.24 1.013-1.485 1.418-2.633.405-1.147.405-1.822 0-.81-.338-1.013-.337-.202-1.417-.202-.675 0-2.903 1.08-2.227 1.08-4.657 2.632-2.43 1.553-3.78 2.768-.54.945-.743 1.215-.202.27-.742.27 0-.54-.675.135t-1.62 1.89q-.945 1.215-1.89 2.565-.945 1.35-1.485 2.16-.135 1.215-.608 2.227-.472 1.013-.337 2.093.135 1.35 1.35 2.565 1.215 1.215 3.51 3.105 4.725 3.51 7.087 5.535 2.363 2.025 3.308 3.24.945 1.215 1.215 2.43 2.295 4.185.54 7.222-1.755 3.038-5.4 4.658-1.35.675-4.725 1.282-3.375.608-7.088.54-3.712-.067-6.277-1.147Zm66.151-3.51q-4.05 2.295-8.572 2.632-4.523.338-8.438-1.215-3.915-1.552-6.345-4.657-1.35-1.755-2.565-5.603-1.215-3.847-.405-10.462.81-6.21 3.848-12.555 3.037-6.345 7.492-11.205t9.72-6.615q1.89-.675 3.848-1.013 1.957-.337 5.197-.067 3.105.405 5.535 1.552 2.43 1.148 3.51 2.498 2.16 2.16 2.835 4.185.675 2.025.54 3.915-.675 4.32-3.847 9.315-3.173 4.995-8.843 7.425-2.295.945-5.4 1.215-3.105.27-8.505-.81-3.24-.675-4.252.675-1.013 1.35-.878 5.265.27 2.43 1.148 4.252.877 1.823 3.307 2.498 3.105.54 4.455.067 1.35-.472 3.375-1.417 1.08-.675 2.093-1.485l2.025-1.62q1.012-.81 1.687-1.215.675-.54 1.35-.675t1.35-.135q1.485.135 2.835 1.62 1.35 1.485 1.755 2.835 0 1.08-1.35 3.037-1.35 1.958-3.577 4.05-2.228 2.093-4.928 3.713Zm-1.755-30.105q.945-.405 2.768-1.89 1.822-1.485 3.307-3.173 1.485-1.687 1.485-2.632 0-1.485-1.957-2.565-1.958-1.08-5.063-.405-1.08.27-2.565 1.485-1.485 1.215-2.97 2.767-1.485 1.553-2.565 2.97-1.08 1.418-1.485 2.228.54.675 2.16 1.08t3.578.405q1.957 0 3.307-.27ZM727.541 116.757q-2.021-1.316-2.374-2.632-.352-1.316.917-2.115.282-.188 1.105-.047.822.141 1.245.564.94.846 2.139 1.058 1.198.211 2.937-.259 1.974-.611 3.032-1.527 1.057-.917 2.373-2.515.987-1.269 1.387-2.491.399-1.222.375-2.232-.023-1.011-.493-1.528-1.175-1.645-2.914-2.28-1.739-.634-4.559.118-.329.047-.987.188-.658.141-1.175.259-.517.117-.564.117-.329.094-.517.094t-.447.447q-.258.446-.775 1.833-.517 1.386-1.551 4.253-.987 2.867-1.668 4.066-.682 1.198-1.199 1.08-.517-.117-1.175-1.01-.376-.658-.822-1.457-.447-.799.023-1.645.235-.423.376-.775.141-.353.376-1.246.235-.705.917-2.467.681-1.763 1.621-4.136.94-2.374 1.974-4.912t1.997-4.794q.964-2.256 1.622-3.807.658-1.457.799-2.115.141-.658-.094-.705 0-.235-.141-.446-.141-.212-.094-.4 0-.188.822-.517.823-.329 1.763-.611t1.363-.188q.235 0 .564-.023.329-.024.329-.212.141 0 .893-.094t1.645 0q3.149.282 5.17 1.81 2.021 1.527 1.974 4.864-.047.799-.658 2.068-.611 1.269-1.528 2.538-.916 1.269-1.95 2.209-.611.517-1.293 1.058-.681.54-1.175.893l-.493.352.376.141q.376.141.799.282 2.162.799 3.408 2.021 1.245 1.222 1.762 3.384.188.705.024 1.739-.165 1.034-.447 2.045-.282 1.01-.611 1.715-.329.329-.517.682l-.188.352q0 .094-.376.729-.376.634-.893 1.386-.517.752-.987 1.316-.47.376-1.34 1.058-.869.681-1.88 1.339-1.01.658-1.903.987-1.316.564-2.938.776-1.621.211-3.078.047-1.457-.165-2.303-.682Zm3.384-19.505.776-.164q.775-.165 1.715-.376.94-.212 1.41-.4.235-.141.682-.376.446-.235.916-.705.658-.611 1.41-1.386.752-.776 1.48-1.669.729-.893 1.246-1.927 1.081-1.692 1.175-2.444.094-.752-.517-1.363-.423-.517-1.175-.775-.752-.259-1.621-.282-.87-.024-1.669.211-.611.188-.94.447-.329.258-.329.775 0 .423-.259.87-.258.446-.493.681-.047.329-.305.635l-.259.305q0 .188-.587 1.152-.588.963-1.246 2.749-.846 2.021-1.128 2.914-.282.893-.282 1.128Zm22.884 17.954q-1.457-.094-2.914-1.057-1.457-.964-2.68-1.81-.798-.799-1.221-1.715-.423-.917-.705-2.421-.188-.893 0-2.35t.61-2.937q.424-1.481.8-2.327.564-1.316 1.433-2.843.87-1.528 1.74-2.914.869-1.387 1.386-2.233.329-.329.305-.352l-.023-.024q0-.235.493-1.198.494-.964.87-1.716.705-.752.799-1.222.094-.47-.141-.752-.094-.188.4-.799.493-.611 1.386-1.386.893-.776 1.974-1.387 1.128-.893 2.185-.963 1.058-.071 1.246.446 0 .141.54.07.54-.07 1.27-.234.728-.165 1.292-.259.235-.282 1.104-.446.87-.165 2.045-.306.61.047 1.363.024.752-.024 1.34-.071l.587-.047q.329-.094.963.4.635.493 1.01 1.339.33.846-.563 1.457-.893.611-2.82.846-1.41.188-2.186.306-.775.117-1.645.282-.87.164-2.514.54-1.175.235-1.974.376-.8.141-1.387.564-.587.423-1.292 1.504-.33.235-.846 1.222l-1.034 1.974q-1.316 1.833-1.95 2.703-.635.869-.447 1.104l.658.141q.658.141.846.141.47-.235 1.151-.329.682-.094 1.105-.188 2.914-.752 4.3-1.104 1.387-.353 1.974-.494.588-.141 1.058-.188.658-.517 1.34.07.68.588.963 1.387.329.94 0 1.457-.33.517-1.434.846-1.104.329-3.125.776-2.021.446-5.076 1.292-2.585.752-4.183.893-1.598.141-1.504-.799-.33-.188-.729.353-.4.54-.728 1.48-.33.94-.588 2.021-.258 1.081-.305 2.021-.047.94.14 1.457.377 1.081 1.2 1.857.822.775 2.42 1.245.94.047 1.833.141.893.094 2.02-.376 2.774-.47 3.855-.987 1.08-.517 1.316-.705.376-.188.493-.376.118-.188.353-.188-.141.235.094 0t.752-.658q.987-.846 1.974-1.034.987-.188 1.645-.023.658.164.705.399.282.47-.282 1.48-.564 1.011-1.716 2.139-1.151 1.128-2.702 2.021-2.491 1.316-5.405 1.857-2.914.54-5.217.587Zm24.389.658q-.846.047-1.41-.799-.564-.846-.517-1.41.047-.752.423-2.162t.846-2.867q.47-1.457.846-2.303.188-.752.352-1.34.165-.587.212-.775.141-.188.446-.987.306-.799.494-1.551.094-.376.4-1.433.305-1.058.751-2.468.447-1.41.893-2.773.447-1.363.776-2.397.329-1.034.423-1.363.376-.564.564-1.081.188-.517.235-.705.282-.188.329-.493.047-.306.047-.494 0-.235.164-.376.165-.141.165-.329.188-.141.235-.047.047.094.282-.141l.235-1.598 4.183-.047q-.094.564-.282 1.387-.188.822-.893 2.185-.235.94-.54 1.692-.306.752-.259.987-.094.094-.4.94-.305.846-.705 2.068l-.799 2.444q-.399 1.222-.705 2.139-.305.916-.399 1.151-.376.752-.846 2.209t-1.41 3.948q-.376.752-.917 2.256-.54 1.504-.869 2.726-.517 1.833-.917 2.632-.399.799-.728.964-.329.164-.705.211Zm.423-27.636q-1.927.188-2.609-.47-.681-.658-.493-1.41.141-.564.681-.963.541-.4 1.998-.682.517-.094 1.34-.235.822-.141 1.574-.282 1.551-.188 2.561-.329 1.011-.141 2.092-.235 1.081-.094 2.726-.188 1.363-.094 2.326-.164l.964-.071q.141 0 .987.094t1.833.235q.987.141 1.457.329 1.081.235 1.739.846.658.611.846 1.41.141.564 0 .87-.141.305-.517.493-1.081.329-1.763.54-.681.212-1.339-.023-.235-.235-.54-.423-.306-.188-1.035-.305-.728-.118-2.279-.212-1.316.141-2.303.141-.987 0-.987.235l-2.773.141-2.303.235q-.47.047-1.316.118-.846.07-1.645.14-.799.071-1.222.165Zm11.091 26.696q-.846-.47-.916-1.034-.07-.564.634-1.974.705-1.41 2.21-4.371 1.127-2.115 1.527-3.313.4-1.199.446-1.716.047-.517.047-.658-.094-.423.094-.681.188-.259.611-.447.235-.235 1.081-.846t1.316-1.457q.423-.987.964-2.021.54-1.034 1.433-2.608.893-1.575 2.397-4.113.94-1.645 2.233-3.713 1.292-2.068 2.561-3.76.517-.658 1.081-1.034t.987-.376q1.034 0 2.068.54 1.034.541 1.833 1.34.8.799 1.081 1.504.235.376.188 1.598-.047 1.222-.188 2.961-.14 1.739-.329 3.713-.14 1.927-.423 4.559-.282 2.632-.54 5.499-.259 2.867-.4 5.523-.14 2.655 0 4.629.047.423 0 .799-.047.376-.047.611-.282.282-1.222.259-.94-.024-1.833-.306t-.987-.705q-.14-.141-.188-.235-.047-.094 0-.916.047-.823.141-3.032l.235-7.191-.61.047q-.424 0-1.528.094-1.105.094-2.397.259-1.293.164-2.374.329-1.08.164-1.504.305-.423 0-1.01.564-.588.564-1.105 1.457-.188.658-.681 1.387-.494.728-.494.963-.329.235-.54.564l-.212.329q0 .282-.399 1.387-.4 1.104-1.034 2.444-.635 1.339-1.293 2.326l-1.269 1.786Zm11.233-16.168.517-.094q.517-.094 1.246-.211.728-.118 1.292-.118 1.081-.282 1.81-.423.728-.141 1.198-.164.47-.024.752.117.188.235.353.282l.164.047q.047-.094.188-.987.141-.893.33-2.209.187-1.316.375-2.75.188-1.433.33-2.678.14-1.246.187-1.951.047-.893-.047-1.621l-.094-.729q-.282 0-1.057 1.01-.776 1.011-1.786 2.68-1.01 1.668-1.998 3.595-.47.893-.869 1.41-.4.517-.635.517-.094.094-.493.729-.4.634-.846 1.41-.447.775-.752 1.41-.306.634-.165.728Z" style="fill:#333;white-space:pre"/></svg>